<?xml version="1.0" encoding="UTF-8"?>
<svg width="200px" height="204px" viewBox="0 0 200 204" version="1.1" xmlns="http://www.w3.org/2000/svg" xmlns:xlink="http://www.w3.org/1999/xlink">
    <title>logo_tiny/mark/secondary/logo_tiny_mark_secondary</title>
    <g id="logo_tiny/mark/secondary/logo_tiny_mark_secondary" stroke="none" stroke-width="1" fill="none" fill-rule="evenodd">
        <g id="logo" fill="#0C132C">
            <path d="M132.174917,0 C166.168467,0.200392927 199.762092,28.4557957 199.762092,69.6365422 C199.762092,69.6365422 200.761902,119.434185 198.6623,133.261297 C193.963192,164.722986 170.467651,186.465619 138.073798,191.976424 C108.879338,197.687623 91.5826205,200.994106 85.983683,202.096267 C83.5841384,202.59725 72.9861496,204 68.3870223,204 C32.7937768,204 0.499905134,177.347741 0,134.363458 C0,134.363458 0,88.4734774 0.399924107,76.3497053 C1.59969643,44.9882122 23.2955792,19.6385069 64.5877433,11.5225933 C64.5877433,11.5225933 115.078162,1.70333988 117.177763,1.30255403 C121.976853,0.400785855 127.275847,0 132.174917,0 Z M155.970402,36.5717092 L75.9855804,52.1021611 L75.9855804,83.3634578 L43.9916518,89.5756385 L43.9916518,167.528487 L123.976473,151.998035 L123.976473,120.736739 L155.970402,114.524558 L155.970402,36.5717092 Z M123.976473,74.0451866 L123.976473,120.736739 L75.9855804,130.05501 L75.9855804,83.3634578 L123.976473,74.0451866 Z"></path>
        </g>
    </g>
</svg>